<?xml version="1.0" encoding="UTF-8"?>
<svg version="1.1" xmlns="http://www.w3.org/2000/svg" width="660" height="175">
<path d="M0 0 C217.8 0 435.6 0 660 0 C660 57.75 660 115.5 660 175 C442.2 175 224.4 175 0 175 C0 117.25 0 59.5 0 0 Z " fill="#FEFEFE" transform="translate(0,0)"/>
<path d="M0 0 C41.32588161 0 41.32588161 0 50.5625 8.48828125 C56.15284925 14.36726266 56.47613892 20.88409034 56.40625 28.66796875 C55.66603974 34.73911636 52.6314558 38.76772712 48.04296875 42.66015625 C46.41539874 43.85017179 44.71358618 44.93757657 43 46 C44.41362911 49.80882471 46.17918658 53.18023797 48.2578125 56.66796875 C48.88300781 57.72564453 49.50820313 58.78332031 50.15234375 59.87304688 C51.47464176 62.09476937 52.79756522 64.31611972 54.12109375 66.53710938 C54.74371094 67.59091797 55.36632812 68.64472656 56.0078125 69.73046875 C56.58160645 70.69364014 57.15540039 71.65681152 57.74658203 72.64916992 C59 75 59 75 59 77 C54.38 77 49.76 77 45 77 C42.00520833 71.75911458 39.01041667 66.51822917 36.015625 61.27734375 C35.48936523 60.37491943 34.96310547 59.47249512 34.42089844 58.54272461 C33 56 33 56 32.02441406 53.78735352 C31.11867551 51.60963718 31.11867551 51.60963718 29 49 C26.06508055 48.02860957 23.32055931 48.02093525 20.25 48.0625 C17.5275 48.041875 14.805 48.02125 12 48 C12 57.57 12 67.14 12 77 C8.04 77 4.08 77 0 77 C0 51.59 0 26.18 0 0 Z " fill="#3946C2" transform="translate(400,44)"/>
<path d="M0 0 C3.96 0 7.92 0 12 0 C15.26561843 7.77235856 18.43272108 15.56903822 21.46875 23.43359375 C21.87154175 24.47338882 22.2743335 25.5131839 22.68933105 26.58448792 C23.96098464 29.86827364 25.23051647 33.15287483 26.5 36.4375 C27.35012327 38.63351664 28.2003827 40.82948057 29.05078125 43.02539062 C30.665563 47.19537563 32.27720401 51.36655379 33.88671875 55.53857422 C35.1479699 58.80557675 36.41794328 62.06859155 37.70703125 65.32470703 C38.16464844 66.48728027 38.62226563 67.64985352 39.09375 68.84765625 C39.66125977 70.27283569 39.66125977 70.27283569 40.24023438 71.72680664 C41 74 41 74 41 77 C37.04 77 33.08 77 29 77 C27.82905995 74.2100561 26.66309073 71.41821403 25.5 68.625 C25.16613281 67.8309375 24.83226562 67.036875 24.48828125 66.21875 C24.17246094 65.45820312 23.85664063 64.69765625 23.53125 63.9140625 C23.23798828 63.2123291 22.94472656 62.5105957 22.64257812 61.78759766 C22 60 22 60 22 58 C11.11 58 0.22 58 -11 58 C-11.33 59.98 -11.66 61.96 -12 64 C-12.80253682 66.31025355 -13.65819751 68.60265016 -14.5625 70.875 C-15.01753906 72.02742188 -15.47257812 73.17984375 -15.94140625 74.3671875 C-16.29074219 75.23601562 -16.64007813 76.10484375 -17 77 C-20.96 77 -24.92 77 -29 77 C-28.36217874 71.35080848 -26.40252895 66.46807162 -24.31640625 61.23046875 C-23.94481888 60.28421127 -23.57323151 59.3379538 -23.19038391 58.36302185 C-21.98675259 55.30224845 -20.77479035 52.24485287 -19.5625 49.1875 C-18.73864433 47.09767112 -17.91523989 45.0076643 -17.09228516 42.91748047 C-14.73698171 36.94148898 -12.37094232 30.96980217 -10 25 C-9.52750824 23.81020538 -9.52750824 23.81020538 -9.04547119 22.59637451 C-6.04961059 15.05646812 -3.03686578 7.52349159 0 0 Z " fill="#3A46C2" transform="translate(287,44)"/>
<path d="M0 0 C3.96 0 7.92 0 12 0 C12 10.89 12 21.78 12 33 C24.54 33 37.08 33 50 33 C50 22.11 50 11.22 50 0 C53.96 0 57.92 0 62 0 C62 25.41 62 50.82 62 77 C58.04 77 54.08 77 50 77 C50 66.44 50 55.88 50 45 C37.46 45 24.92 45 12 45 C12 55.56 12 66.12 12 77 C8.04 77 4.08 77 0 77 C0 51.59 0 26.18 0 0 Z " fill="#3A47C2" transform="translate(115,44)"/>
<path d="M0 0 C16.17 0 32.34 0 49 0 C49 3.96 49 7.92 49 12 C36.79 12 24.58 12 12 12 C12 18.6 12 25.2 12 32 C21.9 32 31.8 32 42 32 C42 35.63 42 39.26 42 43 C32.1 43 22.2 43 12 43 C12 50.59 12 58.18 12 66 C24.21 66 36.42 66 49 66 C49 69.63 49 73.26 49 77 C32.83 77 16.66 77 0 77 C0 51.59 0 26.18 0 0 Z " fill="#3C48C3" transform="translate(198,44)"/>
<path d="M0 0 C5.17971839 -0.65996412 9.83431184 -0.9128555 15 0 C17.9630401 2.57230953 19.30277067 5.61488831 20.98632812 9.11523438 C23.09722963 13.04012831 25.83171532 16.58120266 28.4375 20.1875 C29.49945667 21.68045016 30.56071444 23.17389785 31.62109375 24.66796875 C32.41370228 25.77890292 33.2065259 26.88968389 34 28 C36.69104548 25.5344927 38.55745006 22.80224251 40.5390625 19.74609375 C41.20164062 18.72708984 41.86421875 17.70808594 42.546875 16.65820312 C43.23265625 15.59537109 43.9184375 14.53253906 44.625 13.4375 C45.31851563 12.37080078 46.01203125 11.30410156 46.7265625 10.20507812 C50.05601612 5.21485743 50.05601612 5.21485743 53 0 C57.62 0 62.24 0 67 0 C65.48355284 3.7911179 64.33951813 6.2011244 62.05859375 9.40625 C61.47867676 10.22706055 60.89875977 11.04787109 60.30126953 11.89355469 C59.37870361 13.18374512 59.37870361 13.18374512 58.4375 14.5 C57.17290651 16.28626681 55.9085841 18.07272556 54.64453125 19.859375 C53.71568115 21.16745117 53.71568115 21.16745117 52.76806641 22.50195312 C50.36229323 25.90099636 47.98932339 29.32205013 45.625 32.75 C44.91601562 33.77609375 44.20703125 34.8021875 43.4765625 35.859375 C42.98929688 36.56578125 42.50203125 37.2721875 42 38 C43.27907362 40.6790017 44.67533103 43.09596487 46.3984375 45.51171875 C46.87249023 46.17945313 47.34654297 46.8471875 47.83496094 47.53515625 C48.34317383 48.24542969 48.85138672 48.95570312 49.375 49.6875 C50.16052246 50.79351562 50.16052246 50.79351562 50.96191406 51.921875 C52.63885793 54.28298001 54.31921244 56.64162999 56 59 C58.25316253 62.16443315 60.50253677 65.33151752 62.75 68.5 C63.27513184 69.23565186 63.80026367 69.97130371 64.34130859 70.72924805 C68 75.88713152 68 75.88713152 68 77 C62.78185741 78.55194758 58.00542649 79.42002448 53 77 C47.04566026 71.15115053 42.80523034 63.70334222 38.57128906 56.56542969 C37.06263498 54.00025227 37.06263498 54.00025227 35.29589844 51.78613281 C34 50 34 50 34 48 C33.34 48 32.68 48 32 48 C31.65001953 49.03060547 31.65001953 49.03060547 31.29296875 50.08203125 C29.4184352 54.31247404 26.68462847 57.84123034 23.94042969 61.53369141 C21.85937764 64.35206005 19.9683645 67.05760386 18.27734375 70.13671875 C16.69941217 72.96569584 15.52041769 74.9541765 13 77 C8.22149905 77.82188109 3.79553361 77.5986103 -1 77 C3.10471884 70.30815204 7.46392464 63.84182813 12 57.4375 C12.5161084 56.7050708 13.0322168 55.9726416 13.56396484 55.21801758 C15.7966553 52.05970711 18.04867667 48.93633979 20.3984375 45.86328125 C21.05070313 45.00089844 21.70296875 44.13851562 22.375 43.25 C23.22191406 42.17492187 23.22191406 42.17492187 24.0859375 41.078125 C25.22966838 39.02196124 25.22966838 39.02196124 24.5390625 36.76171875 C22.32909632 32.79611953 19.69879399 29.20770452 17 25.5625 C15.82924128 23.95977112 14.65867072 22.35690479 13.48828125 20.75390625 C12.32552768 19.16926581 11.16276748 17.58463023 10 16 C8.05441513 13.33910019 6.11783369 10.671977 4.1875 8 C3.76146484 7.41935791 3.33542969 6.83871582 2.89648438 6.24047852 C0 2.22748917 0 2.22748917 0 0 Z " fill="#3A46C2" transform="translate(521,44)"/>
<path d="M0 0 C11.88 0 23.76 0 36 0 C36 3.63 36 7.26 36 11 C32.04 11 28.08 11 24 11 C24 29.15 24 47.3 24 66 C27.96 66 31.92 66 36 66 C36 69.63 36 73.26 36 77 C24.12 77 12.24 77 0 77 C0 73.37 0 69.74 0 66 C3.96 66 7.92 66 12 66 C12 48.18 12 30.36 12 12 C8.04 12 4.08 12 0 12 C0 8.04 0 4.08 0 0 Z " fill="#3946C2" transform="translate(473,44)"/>
<path d="M0 0 C18.48 0 36.96 0 56 0 C56 3.96 56 7.92 56 12 C48.74 12 41.48 12 34 12 C34 33.45 34 54.9 34 77 C30.04 77 26.08 77 22 77 C22 55.55 22 34.1 22 12 C14.74 12 7.48 12 0 12 C0 8.04 0 4.08 0 0 Z " fill="#3E4BC4" transform="translate(45,44)"/>
<path d="M0 0 C18.15 0 36.3 0 55 0 C55 3.96 55 7.92 55 12 C47.74 12 40.48 12 33 12 C33 33.45 33 54.9 33 77 C29.04 77 25.08 77 21 77 C21 55.55 21 34.1 21 12 C14.07 12 7.14 12 0 12 C0 8.04 0 4.08 0 0 Z " fill="#3C49C3" transform="translate(330,44)"/>
<path d="M0 0 C5.5378125 -0.061875 5.5378125 -0.061875 11.1875 -0.125 C12.92036255 -0.15231201 12.92036255 -0.15231201 14.68823242 -0.18017578 C15.60967041 -0.1851709 16.5311084 -0.19016602 17.48046875 -0.1953125 C18.41785889 -0.20578613 19.35524902 -0.21625977 20.32104492 -0.22705078 C24.87905416 0.15925639 27.44224076 1.49181936 30.8125 4.5625 C33.38884412 7.87842555 33.60836635 10.77144505 33.359375 14.88671875 C32.70554637 18.73151534 31.0704083 21.00076086 28.27050781 23.61450195 C25.32045172 25.41467059 23.36206691 25.34355981 19.921875 25.29296875 C18.76171875 25.28330078 17.6015625 25.27363281 16.40625 25.26367188 C15.1996875 25.23853516 13.993125 25.21339844 12.75 25.1875 C10.91695313 25.16719727 10.91695313 25.16719727 9.046875 25.14648438 C6.03106179 25.11114281 3.01547523 25.0573365 0 25 C0 16.75 0 8.5 0 0 Z " fill="#F8F9FD" transform="translate(411,56)"/>
<path d="M0 0 C2.39023427 2.13751679 3.52269196 3.83390817 4.5 6.87890625 C4.7475 7.63623047 4.995 8.39355469 5.25 9.17382812 C5.4975 9.96208984 5.745 10.75035156 6 11.5625 C6.2475 12.32369141 6.495 13.08488281 6.75 13.86914062 C8.58634196 19.5551057 10.28269701 25.27565669 12 31 C4.74 31 -2.52 31 -10 31 C-7.75 20.875 -7.75 20.875 -6.0546875 16.30859375 C-5.70019531 15.34501953 -5.34570312 14.38144531 -4.98046875 13.38867188 C-4.61566406 12.41478516 -4.25085938 11.44089844 -3.875 10.4375 C-3.50246094 9.42880859 -3.12992187 8.42011719 -2.74609375 7.38085938 C-1.83587803 4.91860915 -0.92043712 2.45844342 0 0 Z " fill="#F7F8FC" transform="translate(292,59)"/>
</svg>
